<svg width="36" height="36" viewBox="0 0 36 36" fill="none" xmlns="http://www.w3.org/2000/svg">
<path fill-rule="evenodd" clip-rule="evenodd" d="M8.50355 7.13989C8.54406 6.7993 8.66346 6.47286 8.85227 6.18651C9.04108 5.90016 9.29408 5.66181 9.59117 5.4904C9.88826 5.319 10.2212 5.21926 10.5636 5.19912C10.906 5.17898 11.2484 5.23899 11.5635 5.37439C13.1565 6.05539 16.7265 7.67389 21.2565 10.2884C25.788 12.9044 28.9755 15.1889 30.36 16.2254C31.542 17.1119 31.545 18.8699 30.3615 19.7594C28.9905 20.7899 25.842 23.0444 21.2565 25.6934C16.6665 28.3424 13.1385 29.9414 11.5605 30.6134C10.2015 31.1939 8.68055 30.3134 8.50355 28.8479C8.29655 27.1349 7.90955 23.2454 7.90955 17.9924C7.90955 12.7424 8.29505 8.85439 8.50355 7.13989Z" fill="#F4ECF7"/>
</svg>
